<?xml version="1.0" standalone="no"?><!DOCTYPE svg PUBLIC "-//W3C//DTD SVG 20010904//EN" "http://www.w3.org/TR/2001/REC-SVG-20010904/DTD/svg10.dtd"><svg version="1.0" xmlns="http://www.w3.org/2000/svg" width="243.000000pt" height="243.000000pt" viewBox="0 0 243.000000 243.000000" preserveAspectRatio="xMidYMid meet"><g transform="translate(0.000000,243.000000) scale(0.100000,-0.100000)" fill="#C4CDEA" stroke="none"><path d="M40 1903 l0 -488 388 -485 c219 -274 398 -490 412 -496 36 -15 780 -6 780 10 0 19 -1545 1941 -1563 1944 -16 3 -17 -31 -17 -485z"/><path d="M1891 1758 c-277 -347 -506 -639 -508 -649 -5 -18 10 -19 385 -19 357 0 392 1 410 18 12 9 73 82 137 162 l115 145 0 488 c0 457 -1 487 -17 487 -12 0 -204 -233 -522 -632z"/></g></svg>