<svg version="1.1" id="Layer_1" xmlns="http://www.w3.org/2000/svg" x="0" y="0" viewBox="0 0 256 256" style="enable-background:new 0 0 256 256" xml:space="preserve"><style>.st5{fill:#fff;fill-opacity:0;}.st7{fill:#C4CDEA}.st8{fill:#11111b}</style><path d="M246.5 235.439H9.5a5 5 0 0 1-5-5V25.561a5 5 0 0 1 5-5h237a5 5 0 0 1 5 5V230.44a5 5 0 0 1-5 4.999z" style="fill:#f38ba8"/><path d="M251.5 55.74v174.7c0 2.76-2.24 5-5 5H9.5c-2.76 0-5-2.24-5-5V25.56c0-2.76 2.24-5 5-5h59.95l25.51 31.7a9.345 9.345 0 0 0 7.28 3.48H251.5z" style="fill:#94e2d5"/><path class="st5" d="M251.5 55.74v174.7a5 5 0 0 1-5 5H24.73a5 5 0 0 1-5-5V25.56a5 5 0 0 1 5-5h44.72l25.51 31.7a9.345 9.345 0 0 0 7.28 3.48H251.5z"/><path class="st7" d="M167.041 170.863a8.094 8.094 0 0 1 .448-11.44l26.054-24.089-26.054-24.089c-3.284-3.035-3.484-8.157-.448-11.44s8.156-3.485 11.44-.448l32.484 30.032c3.462 3.201 3.467 8.684 0 11.889l-32.484 30.032a8.094 8.094 0 0 1-11.44-.447zM77.519 171.311l-32.484-30.032c-3.462-3.201-3.467-8.684 0-11.889l32.484-30.032a8.094 8.094 0 0 1 11.44.448 8.094 8.094 0 0 1-.448 11.44l-26.054 24.089 26.054 24.089a8.096 8.096 0 1 1-10.992 11.887zM106.612 172.378a8.096 8.096 0 0 1-2.963-11.059l34.68-60.066a8.096 8.096 0 0 1 14.022 8.096l-34.68 60.066a8.096 8.096 0 0 1-11.059 2.963z"/><circle class="st5" cx="205.342" cy="38.457" r="6.896"/><circle class="st5" cx="230.584" cy="38.457" r="6.896"/><path class="st8" d="M165.572 172.221a10.088 10.088 0 0 0 14.266.559l32.483-30.032c4.316-3.988 4.319-10.836 0-14.827l-32.482-30.032c-4.014-3.713-10.41-3.612-14.267.558a10.088 10.088 0 0 0 .559 14.266l24.465 22.621-24.465 22.621a10.089 10.089 0 0 0-.559 14.266zm3.274-11.329 26.054-24.089a2 2 0 0 0 0-2.937l-26.054-24.089a6.09 6.09 0 0 1-.336-8.613 6.091 6.091 0 0 1 8.613-.337l32.483 30.032a6.092 6.092 0 0 1 0 8.952l-32.483 30.033a6.091 6.091 0 0 1-8.613-.337 6.092 6.092 0 0 1 .336-8.615zM90.428 98.448c-3.781-4.09-10.16-4.357-14.266-.559l-32.483 30.032c-4.316 3.988-4.319 10.836 0 14.827l32.483 30.032c4.029 3.727 10.422 3.599 14.266-.559a10.088 10.088 0 0 0-.559-14.266l-24.465-22.621 24.465-22.62a10.089 10.089 0 0 0 .559-14.266zm-3.274 11.329L61.1 133.866a2 2 0 0 0 0 2.937l26.054 24.09a6.09 6.09 0 0 1 .336 8.613 6.087 6.087 0 0 1-8.613.338L46.394 139.81a6.092 6.092 0 0 1 0-8.952l32.484-30.033a6.091 6.091 0 0 1 8.612.337 6.093 6.093 0 0 1-.336 8.615zM105.612 174.11c4.824 2.782 11.008 1.123 13.791-3.695l34.681-60.066c2.782-4.821 1.124-11.008-3.697-13.791-4.82-2.781-11.005-1.123-13.79 3.696l-34.681 60.066c-2.782 4.821-1.124 11.007 3.696 13.79zm-.231-11.791 34.68-60.065a6.105 6.105 0 0 1 8.327-2.232 6.103 6.103 0 0 1 2.231 8.327l-34.681 60.066a6.103 6.103 0 0 1-8.326 2.231 6.104 6.104 0 0 1-2.231-8.327z"/><path class="st8" d="M246.5 18.561H9.5c-3.859 0-7 3.14-7 7v204.878c0 3.86 3.141 7 7 7h237c3.859 0 7-3.14 7-7V25.561c0-3.86-3.141-7-7-7zm3 211.659a3.223 3.223 0 0 1-3.22 3.219H9.72a3.223 3.223 0 0 1-3.22-3.219V25.78a3.223 3.223 0 0 1 3.22-3.219h58.771L93.404 53.51a11.283 11.283 0 0 0 8.831 4.229H249.5V230.22zm0-176.481H102.235a7.308 7.308 0 0 1-5.716-2.737L73.626 22.561H246.5c1.654 0 3 1.346 3 3v28.178z"/><path class="st8" d="M60.76 39.618a2 2 0 0 0-2-2H24.217a2 2 0 0 0 0 4H58.76a2 2 0 0 0 2-2zM205.343 29.561c-4.905 0-8.896 3.991-8.896 8.896 0 4.905 3.991 8.896 8.896 8.896s8.896-3.991 8.896-8.896c0-4.905-3.991-8.896-8.896-8.896zm0 13.793c-2.7 0-4.896-2.196-4.896-4.896s2.196-4.896 4.896-4.896 4.896 2.197 4.896 4.896-2.196 4.896-4.896 4.896zM230.584 29.561c-4.905 0-8.896 3.991-8.896 8.896 0 4.905 3.99 8.896 8.896 8.896s8.896-3.991 8.896-8.896c0-4.905-3.991-8.896-8.896-8.896zm0 13.793c-2.699 0-4.896-2.196-4.896-4.896s2.196-4.896 4.896-4.896c2.7 0 4.896 2.197 4.896 4.896s-2.196 4.896-4.896 4.896z"/></svg>