<svg xmlns="http://www.w3.org/2000/svg" version="1.1" xmlns:xlink="http://www.w3.org/1999/xlink" xmlns:svgjs="http://svgjs.com/svgjs" width="100.000000pt" height="100.000000pt"><svg version="1.0" xmlns="http://www.w3.org/2000/svg" width="100.000000pt" height="100.000000pt" viewBox="0 0 100.000000 100.000000" preserveAspectRatio="xMidYMid meet">

<g transform="translate(0.000000,100.000000) scale(0.100000,-0.100000)" fill="#000000" stroke="none">
<path d="M396 824 c8 -26 14 -69 14 -95 l0 -48 -51 35 c-62 41 -86 48 -142 40
-45 -7 -148 -55 -153 -71 -2 -5 26 -30 63 -55 55 -37 132 -119 133 -141 0 -4
-26 -16 -57 -27 -32 -12 -74 -31 -93 -43 l-35 -22 50 -13 c67 -18 135 -44 135
-53 0 -4 -15 -15 -32 -26 l-33 -19 25 -7 c14 -4 46 -7 72 -8 43 -1 51 -5 106
-61 53 -55 63 -60 101 -60 37 0 49 6 95 50 47 44 58 50 96 50 40 0 42 1 25 14
-18 13 -14 15 43 31 34 10 62 21 62 26 0 4 -14 10 -30 14 -17 4 -28 11 -24 16
3 5 39 28 80 50 40 22 76 45 80 50 3 5 -17 9 -44 9 -27 0 -52 3 -55 7 -4 4 5
19 20 35 l27 28 -85 0 c-82 0 -84 1 -101 29 -9 17 -34 39 -56 50 -36 19 -40
24 -44 69 -8 78 -40 134 -92 159 -24 12 -60 25 -79 28 l-36 7 15 -48z m172
-429 c-2 -36 -3 -65 -1 -65 1 0 19 24 39 53 l36 52 -6 -37 c-5 -25 -3 -38 4
-38 6 0 8 -4 5 -10 -3 -6 1 -7 9 -4 31 12 18 -43 -19 -82 -19 -20 -35 -41 -35
-45 0 -16 -75 -59 -103 -59 -18 0 -42 13 -72 41 -25 23 -45 46 -45 51 0 6 -11
19 -25 30 -18 14 -25 29 -25 55 0 29 2 33 14 24 26 -22 56 -4 56 35 0 12 6 27
14 33 17 14 26 -5 26 -55 l0 -35 56 60 c31 34 61 61 66 61 6 0 9 -25 6 -65z"></path>
</g>
</svg><style>@media (prefers-color-scheme: light) { :root { filter: none; } }
@media (prefers-color-scheme: dark) { :root { filter: contrast(0.3846153846153846) brightness(4.5); } }
</style></svg>